STARTFONT 2.1
FONT -Monotype-Times New Roman-Bold-R-Normal--25-180-100-100-P-119-iso8859-2
SIZE 18 100 100
FONTBOUNDINGBOX 29 30 -4 -7

STARTPROPERTIES 24
FOUNDRY "Monotype"
FAMILY_NAME "Times New Roman"
WEIGHT_NAME "Bold"
SLANT "R"
SETWIDTH_NAME "Normal"
ADD_STYLE_NAME ""
PIXEL_SIZE 25
POINT_SIZE 180
RESOLUTION_X 100
RESOLUTION_Y 100
SPACING "P"
AVERAGE_WIDTH 119
CHARSET_REGISTRY "iso8859"
CHARSET_ENCODING "2"
FACE_NAME "Times New Roman Bold ISO Latin2"
_DEC_DEVICE_FONTNAMES "PS=timesnewroman-b-lat2"
COPYRIGHT "Copyright (c) 1993 Monotype Typography Ltd."
CAP_HEIGHT 19
X_HEIGHT 13
WEIGHT 10
QUAD_WIDTH 15
DEFAULT_CHAR 160
FONT_DESCENT 7
FONT_ASCENT 23
ENDPROPERTIES

CHARS 191

STARTCHAR space
ENCODING 32
SWIDTH 333 0
DWIDTH 8 0
BBX 0 0 0 0
BITMAP
ENDCHAR

STARTCHAR exclam
ENCODING 33
SWIDTH 333 0
DWIDTH 8 0
BBX 4 17 2 0
BITMAP
F0
F0
F0
F0
F0
60
60
60
60
20
20
00
00
60
F0
F0
60
ENDCHAR

STARTCHAR quotedbl
ENCODING 34
SWIDTH 555 0
DWIDTH 14 0
BBX 10 8 2 9
BITMAP
6180
F3C0
F3C0
F3C0
6180
6180
6180
2080
ENDCHAR

STARTCHAR numbersign
ENCODING 35
SWIDTH 500 0
DWIDTH 13 0
BBX 11 17 1 0
BITMAP
1840
18C0
18C0
10C0
1080
FFE0
FFE0
3180
2180
2100
FFE0
FFE0
6300
4300
4200
C200
C600
ENDCHAR

STARTCHAR dollar
ENCODING 36
SWIDTH 500 0
DWIDTH 13 0
BBX 11 18 1 -1
BITMAP
0F00
35C0
6440
E440
F440
FC00
7C00
3F00
1F80
0FC0
07E0
05E0
84E0
84E0
C4C0
E580
1E00
0400
ENDCHAR

STARTCHAR percent
ENCODING 37
SWIDTH 1000 0
DWIDTH 25 0
BBX 21 17 2 0
BITMAP
3C0180
660300
E70200
E70600
E70C00
E70800
E71800
663000
1C21E0
006330
00C738
008738
018738
030738
020738
060330
0C01E0
ENDCHAR

STARTCHAR ampersand
ENCODING 38
SWIDTH 833 0
DWIDTH 21 0
BBX 18 17 1 0
BITMAP
01E000
067000
063800
0E3800
0E3000
0F3000
0FC000
0787C0
1F8300
73C300
63E200
E1F400
F0F800
F03C40
F87FC0
7F9F80
1E0700
ENDCHAR

STARTCHAR quoteright
ENCODING 39
SWIDTH 333 0
DWIDTH 8 0
BBX 4 8 2 9
BITMAP
E0
F0
F0
F0
10
30
20
C0
ENDCHAR

STARTCHAR parenleft
ENCODING 40
SWIDTH 333 0
DWIDTH 8 0
BBX 7 22 1 -5
BITMAP
02
0C
18
30
30
70
60
E0
E0
E0
E0
E0
E0
E0
E0
60
70
30
30
18
0C
06
ENDCHAR

STARTCHAR parenright
ENCODING 41
SWIDTH 333 0
DWIDTH 8 0
BBX 7 22 0 -5
BITMAP
80
60
30
18
18
1C
0C
0E
0E
0E
0E
0E
0E
0E
0E
0C
1C
1C
18
30
60
C0
ENDCHAR

STARTCHAR asterisk
ENCODING 42
SWIDTH 500 0
DWIDTH 13 0
BBX 9 10 2 7
BITMAP
0800
1C00
1C00
C980
EB80
FF80
1400
3600
7700
6300
ENDCHAR

STARTCHAR plus
ENCODING 43
SWIDTH 570 0
DWIDTH 14 0
BBX 14 14 0 1
BITMAP
0300
0300
0300
0300
0300
0300
FFFC
FFFC
0300
0300
0300
0300
0300
0300
ENDCHAR

STARTCHAR comma
ENCODING 44
SWIDTH 250 0
DWIDTH 6 0
BBX 4 8 1 -4
BITMAP
E0
F0
F0
F0
10
30
20
C0
ENDCHAR

STARTCHAR minus
ENCODING 45
SWIDTH 570 0
DWIDTH 14 0
BBX 14 2 0 7
BITMAP
FFFC
FFFC
ENDCHAR

STARTCHAR period
ENCODING 46
SWIDTH 250 0
DWIDTH 6 0
BBX 4 4 1 0
BITMAP
60
F0
F0
60
ENDCHAR

STARTCHAR slash
ENCODING 47
SWIDTH 278 0
DWIDTH 7 0
BBX 7 17 0 0
BITMAP
06
06
04
0C
0C
08
18
18
10
30
30
20
60
60
40
C0
C0
ENDCHAR

STARTCHAR zero
ENCODING 48
SWIDTH 500 0
DWIDTH 13 0
BBX 11 17 1 0
BITMAP
0E00
3180
31C0
71C0
71C0
F1E0
F1E0
F1E0
F1E0
F1E0
F1E0
F1E0
71C0
71C0
3180
3180
0E00
ENDCHAR

STARTCHAR one
ENCODING 49
SWIDTH 500 0
DWIDTH 13 0
BBX 9 17 1 0
BITMAP
0200
0E00
FE00
1E00
1E00
1E00
1E00
1E00
1E00
1E00
1E00
1E00
1E00
1E00
1E00
1E00
7F80
ENDCHAR

STARTCHAR two
ENCODING 50
SWIDTH 500 0
DWIDTH 13 0
BBX 11 17 1 0
BITMAP
1E00
3F80
7F80
47C0
83C0
03C0
0380
0380
0300
0600
0600
0C00
1820
3040
3FC0
7FC0
FFC0
ENDCHAR

STARTCHAR three
ENCODING 51
SWIDTH 500 0
DWIDTH 13 0
BBX 11 17 0 0
BITMAP
1F80
3FC0
27C0
41C0
01C0
0180
0300
07C0
0FC0
03E0
01E0
00E0
00E0
00C0
E0C0
F980
7E00
ENDCHAR

STARTCHAR four
ENCODING 52
SWIDTH 500 0
DWIDTH 13 0
BBX 11 17 1 0
BITMAP
0180
0180
0380
0780
0D80
1B80
1380
2380
4380
C380
FFE0
FFE0
FFE0
0380
0380
0380
0380
ENDCHAR

STARTCHAR five
ENCODING 53
SWIDTH 500 0
DWIDTH 13 0
BBX 11 17 0 0
BITMAP
1FE0
1FC0
3FC0
2000
2000
7E00
7F80
FFC0
1FC0
03E0
00E0
0060
0060
0040
F040
7980
7E00
ENDCHAR

STARTCHAR six
ENCODING 54
SWIDTH 500 0
DWIDTH 13 0
BBX 11 18 1 0
BITMAP
0060
0380
0E00
1C00
3800
3800
7000
7780
F3C0
F1C0
F1E0
F1E0
F1E0
71E0
71C0
71C0
3980
0F00
ENDCHAR

STARTCHAR seven
ENCODING 55
SWIDTH 500 0
DWIDTH 13 0
BBX 11 17 1 0
BITMAP
7FE0
7FC0
FFC0
C0C0
8180
0180
0180
0300
0300
0300
0600
0600
0600
0400
0C00
0C00
1800
ENDCHAR

STARTCHAR eight
ENCODING 56
SWIDTH 500 0
DWIDTH 13 0
BBX 10 17 1 0
BITMAP
1E00
7380
E1C0
E1C0
F1C0
F180
7F80
3E00
1F80
3780
67C0
E3C0
E1C0
E1C0
E1C0
7380
1E00
ENDCHAR

STARTCHAR nine
ENCODING 57
SWIDTH 500 0
DWIDTH 13 0
BBX 11 17 1 0
BITMAP
1F00
3380
71C0
71C0
F1E0
F1E0
F1E0
F1E0
71E0
79E0
3EC0
01C0
0380
0380
0700
0E00
F800
ENDCHAR

STARTCHAR colon
ENCODING 58
SWIDTH 333 0
DWIDTH 8 0
BBX 4 12 2 0
BITMAP
60
F0
F0
60
00
00
00
00
60
F0
F0
60
ENDCHAR

STARTCHAR semicolon
ENCODING 59
SWIDTH 333 0
DWIDTH 8 0
BBX 4 16 2 -4
BITMAP
60
F0
F0
60
00
00
00
00
E0
F0
F0
F0
10
30
20
C0
ENDCHAR

STARTCHAR less
ENCODING 60
SWIDTH 570 0
DWIDTH 14 0
BBX 14 12 0 2
BITMAP
000C
007C
01E0
0780
3E00
F000
7800
1F00
03C0
00F8
001C
0004
ENDCHAR

STARTCHAR equal
ENCODING 61
SWIDTH 570 0
DWIDTH 14 0
BBX 14 6 0 5
BITMAP
FFFC
FFFC
0000
0000
FFFC
FFFC
ENDCHAR

STARTCHAR greater
ENCODING 62
SWIDTH 570 0
DWIDTH 14 0
BBX 14 12 0 2
BITMAP
C000
F800
1E00
07C0
00F0
001C
0078
03E0
0F00
3C00
E000
8000
ENDCHAR

STARTCHAR question
ENCODING 63
SWIDTH 500 0
DWIDTH 13 0
BBX 10 17 2 0
BITMAP
3E00
6780
E3C0
E3C0
E3C0
03C0
0380
0700
0C00
0800
0800
0000
0000
1800
3C00
3C00
1800
ENDCHAR

STARTCHAR at
ENCODING 64
SWIDTH 930 0
DWIDTH 23 0
BBX 22 22 1 -5
BITMAP
00FF00
0300C0
0C0020
180010
300010
203F88
60EB08
41C708
C1C708
838E08
838E08
870E08
871C10
872C10
C7DC20
47DCC4
430F08
200008
100030
080040
070380
00FC00
ENDCHAR

STARTCHAR A
ENCODING 65
SWIDTH 722 0
DWIDTH 18 0
BBX 18 17 0 0
BITMAP
004000
00C000
00C000
01E000
01E000
01F000
02F000
02F800
047800
047C00
083C00
0FFC00
101E00
101E00
300F00
300F00
FC3FC0
ENDCHAR

STARTCHAR B
ENCODING 66
SWIDTH 667 0
DWIDTH 17 0
BBX 15 17 1 0
BITMAP
FFF0
3C78
3C3C
3C3C
3C3C
3C3C
3C78
3DC0
3FF0
3C3C
3C3E
3C1E
3C1E
3C1E
3C3E
3C7C
FFF0
ENDCHAR

STARTCHAR C
ENCODING 67
SWIDTH 722 0
DWIDTH 18 0
BBX 16 17 1 0
BITMAP
03F1
0F0F
1C07
3803
7801
F801
F000
F000
F000
F000
F000
F800
7800
7802
3C02
1E0C
07F0
ENDCHAR

STARTCHAR D
ENCODING 68
SWIDTH 722 0
DWIDTH 18 0
BBX 16 17 1 0
BITMAP
FFE0
3C78
3C3C
3C1E
3C1E
3C0F
3C0F
3C0F
3C0F
3C0F
3C0F
3C0F
3C1E
3C1E
3C3C
3C78
FFC0
ENDCHAR

STARTCHAR E
ENCODING 69
SWIDTH 667 0
DWIDTH 17 0
BBX 15 17 1 0
BITMAP
FFF8
3C18
3C08
3C08
3C48
3C40
3C40
3CC0
3FC0
3CC0
3C40
3C40
3C42
3C04
3C0C
3C1C
FFFC
ENDCHAR

STARTCHAR F
ENCODING 70
SWIDTH 611 0
DWIDTH 15 0
BBX 14 17 1 0
BITMAP
FFFC
3C1C
3C04
3C04
3C24
3C20
3C60
3CE0
3FE0
3C60
3C20
3C20
3C20
3C00
3C00
3C00
FF80
ENDCHAR

STARTCHAR G
ENCODING 71
SWIDTH 778 0
DWIDTH 19 0
BBX 18 17 1 0
BITMAP
03F100
0E0F00
1C0700
380300
780100
F80100
F00000
F00000
F00000
F00000
F03FC0
F00F00
780F00
780F00
3C0F00
0E0F00
07FC00
ENDCHAR

STARTCHAR H
ENCODING 72
SWIDTH 778 0
DWIDTH 19 0
BBX 18 17 1 0
BITMAP
FF3FC0
3C0F00
3C0F00
3C0F00
3C0F00
3C0F00
3C0F00
3C0F00
3FFF00
3C0F00
3C0F00
3C0F00
3C0F00
3C0F00
3C0F00
3C0F00
FF3FC0
ENDCHAR

STARTCHAR I
ENCODING 73
SWIDTH 389 0
DWIDTH 10 0
BBX 8 17 1 0
BITMAP
FF
3C
3C
3C
3C
3C
3C
3C
3C
3C
3C
3C
3C
3C
3C
3C
FF
ENDCHAR

STARTCHAR J
ENCODING 74
SWIDTH 500 0
DWIDTH 13 0
BBX 12 17 0 0
BITMAP
1FF0
03C0
03C0
03C0
03C0
03C0
03C0
03C0
03C0
03C0
03C0
03C0
F3C0
F3C0
E3C0
6380
3E00
ENDCHAR

STARTCHAR K
ENCODING 75
SWIDTH 778 0
DWIDTH 19 0
BBX 19 17 1 0
BITMAP
FF0FC0
3C0700
3C0600
3C0800
3C1000
3C6000
3CC000
3DC000
3FE000
3DF000
3CF800
3C7C00
3C7C00
3C3E00
3C1F00
3C0F80
FF3FE0
ENDCHAR

STARTCHAR L
ENCODING 76
SWIDTH 667 0
DWIDTH 17 0
BBX 15 17 1 0
BITMAP
FF80
3C00
3C00
3C00
3C00
3C00
3C00
3C00
3C00
3C00
3C00
3C02
3C02
3C02
3C06
3C0E
FFFC
ENDCHAR

STARTCHAR M
ENCODING 77
SWIDTH 944 0
DWIDTH 24 0
BBX 22 17 1 0
BITMAP
FE01FC
3E01F0
2E0170
2F02F0
2F02F0
2784F0
2784F0
27C4F0
23C8F0
23C8F0
21F0F0
21F0F0
20E0F0
20E0F0
20E0F0
2040F0
F843FC
ENDCHAR

STARTCHAR N
ENCODING 78
SWIDTH 722 0
DWIDTH 18 0
BBX 17 17 1 0
BITMAP
FC0F80
7E0200
3E0200
2F0200
2F8200
27C200
23E200
23F200
21F200
20FA00
207E00
203E00
201E00
200E00
200E00
200600
F80200
ENDCHAR

STARTCHAR O
ENCODING 79
SWIDTH 778 0
DWIDTH 19 0
BBX 17 17 1 0
BITMAP
07F000
1E1C00
3C0E00
780F00
780F00
F00780
F00780
F00780
F00780
F00780
F00780
F00780
780F00
780F00
3C1E00
0E3C00
03E000
ENDCHAR

STARTCHAR P
ENCODING 80
SWIDTH 611 0
DWIDTH 15 0
BBX 14 17 1 0
BITMAP
FFE0
3C78
3C3C
3C3C
3C3C
3C3C
3C78
3C78
3FE0
3C00
3C00
3C00
3C00
3C00
3C00
3C00
FF00
ENDCHAR

STARTCHAR Q
ENCODING 81
SWIDTH 778 0
DWIDTH 19 0
BBX 17 22 1 -5
BITMAP
07F000
1E3C00
3C1E00
780F00
780F00
F00780
F00780
F00780
F00780
F00780
F00780
F00780
780F80
780F00
380E00
1C1C00
0E3800
03E000
01E000
00F000
007C00
001F00
ENDCHAR

STARTCHAR R
ENCODING 82
SWIDTH 722 0
DWIDTH 18 0
BBX 18 17 1 0
BITMAP
FFF000
3C3C00
3C1E00
3C1E00
3C1E00
3C1E00
3C1E00
3C3C00
3FE000
3DF000
3CF800
3C7800
3C3C00
3C3E00
3C1E00
3C0F00
FF0FC0
ENDCHAR

STARTCHAR S
ENCODING 83
SWIDTH 556 0
DWIDTH 14 0
BBX 12 17 1 0
BITMAP
1F20
70E0
6060
E020
F020
F800
7E00
7F80
3FC0
0FE0
03F0
80F0
8070
C070
C060
F0C0
8F00
ENDCHAR

STARTCHAR T
ENCODING 84
SWIDTH 667 0
DWIDTH 17 0
BBX 14 17 1 0
BITMAP
FFFC
C78C
8784
8784
8784
0780
0780
0780
0780
0780
0780
0780
0780
0780
0780
0780
1FE0
ENDCHAR

STARTCHAR U
ENCODING 85
SWIDTH 722 0
DWIDTH 18 0
BBX 17 17 1 0
BITMAP
FF8F80
3C0200
3C0200
3C0200
3C0200
3C0200
3C0200
3C0200
3C0200
3C0200
3C0200
3C0200
3C0200
3C0600
1E0400
1F1800
07F000
ENDCHAR

STARTCHAR V
ENCODING 86
SWIDTH 722 0
DWIDTH 18 0
BBX 18 17 0 0
BITMAP
FF0FC0
3C0300
3C0300
1E0200
1E0200
0F0400
0F0400
0F8800
078800
079000
03D000
03D000
01E000
01E000
01C000
00C000
008000
ENDCHAR

STARTCHAR W
ENCODING 87
SWIDTH 1000 0
DWIDTH 25 0
BBX 25 17 0 0
BITMAP
FE7F8780
3C1E0300
3C1F0200
3E0F0200
1E0F0400
1E0F8400
0F0B8C00
0F17C800
0793C800
0793D000
07E1F000
03E1F000
03C1E000
01C0E000
0180C000
01804000
00804000
ENDCHAR

STARTCHAR X
ENCODING 88
SWIDTH 722 0
DWIDTH 18 0
BBX 18 17 0 0
BITMAP
7F9F80
3E0600
1F0600
0F0C00
0F8800
07D000
03E000
03E000
01F000
01F000
017800
027C00
043C00
083E00
181F00
381F80
FE3FC0
ENDCHAR

STARTCHAR Y
ENCODING 89
SWIDTH 722 0
DWIDTH 18 0
BBX 18 17 0 0
BITMAP
FF07C0
3E0300
1E0200
1F0200
0F0400
0F8400
078800
07D000
03D000
03E000
01E000
01E000
01E000
01E000
01E000
01E000
0FFC00
ENDCHAR

STARTCHAR Z
ENCODING 90
SWIDTH 667 0
DWIDTH 17 0
BBX 16 17 0 0
BITMAP
3FFE
383C
207C
2078
20F8
01F0
01E0
03E0
03C0
0780
0F80
0F01
1F01
3E01
3C03
7C0F
FFFF
ENDCHAR

STARTCHAR bracketleft
ENCODING 91
SWIDTH 333 0
DWIDTH 8 0
BBX 5 21 2 -4
BITMAP
F8
E0
E0
E0
E0
E0
E0
E0
E0
E0
E0
E0
E0
E0
E0
E0
E0
E0
E0
E0
F8
ENDCHAR

STARTCHAR backslash
ENCODING 92
SWIDTH 278 0
DWIDTH 7 0
BBX 7 17 0 0
BITMAP
C0
C0
40
60
60
20
30
30
10
18
18
08
0C
0C
04
06
06
ENDCHAR

STARTCHAR bracketright
ENCODING 93
SWIDTH 333 0
DWIDTH 8 0
BBX 5 21 1 -4
BITMAP
F8
38
38
38
38
38
38
38
38
38
38
38
38
38
38
38
38
38
38
38
F8
ENDCHAR

STARTCHAR asciicircum
ENCODING 94
SWIDTH 581 0
DWIDTH 15 0
BBX 11 9 2 8
BITMAP
0400
0E00
0E00
1B00
3300
3180
6180
60C0
C060
ENDCHAR

STARTCHAR underscore
ENCODING 95
SWIDTH 500 0
DWIDTH 13 0
BBX 13 1 0 -3
BITMAP
FFF8
ENDCHAR

STARTCHAR quoteleft
ENCODING 96
SWIDTH 333 0
DWIDTH 8 0
BBX 4 8 2 9
BITMAP
10
60
C0
80
F0
F0
F0
70
ENDCHAR

STARTCHAR a
ENCODING 97
SWIDTH 500 0
DWIDTH 13 0
BBX 11 12 1 0
BITMAP
1F00
6380
E380
F380
6380
0F80
3380
7380
E380
E380
FDE0
73C0
ENDCHAR

STARTCHAR b
ENCODING 98
SWIDTH 556 0
DWIDTH 14 0
BBX 13 17 0 0
BITMAP
F800
3800
3800
3800
3800
3BE0
3CF0
3870
3878
3878
3878
3878
3878
3870
3870
3CE0
2780
ENDCHAR

STARTCHAR c
ENCODING 99
SWIDTH 444 0
DWIDTH 11 0
BBX 9 12 1 0
BITMAP
1E00
3380
6380
E380
E000
E000
E000
F000
F000
7880
7F00
1E00
ENDCHAR

STARTCHAR d
ENCODING 100
SWIDTH 556 0
DWIDTH 14 0
BBX 13 17 1 0
BITMAP
03E0
00E0
00E0
00E0
00E0
1EE0
39E0
70E0
70E0
F0E0
F0E0
F0E0
F0E0
70E0
71E0
7B78
3EF0
ENDCHAR

STARTCHAR e
ENCODING 101
SWIDTH 444 0
DWIDTH 11 0
BBX 9 12 1 0
BITMAP
1E00
3300
6380
E380
E380
FF80
E000
E000
F080
7880
7F00
1E00
ENDCHAR

STARTCHAR f
ENCODING 102
SWIDTH 333 0
DWIDTH 8 0
BBX 10 17 0 0
BITMAP
0F80
19C0
39C0
3800
3800
FE00
3800
3800
3800
3800
3800
3800
3800
3800
3800
3C00
FE00
ENDCHAR

STARTCHAR g
ENCODING 103
SWIDTH 500 0
DWIDTH 13 0
BBX 11 18 1 -6
BITMAP
1E00
73E0
F180
E1C0
E1C0
E1C0
F1C0
7380
1E00
6000
C000
FFC0
7FE0
3FE0
C060
C060
E0C0
3F00
ENDCHAR

STARTCHAR h
ENCODING 104
SWIDTH 556 0
DWIDTH 14 0
BBX 12 17 1 0
BITMAP
F800
3800
3800
3800
3800
39C0
3FE0
3CE0
38E0
38E0
38E0
38E0
38E0
38E0
38E0
38E0
7DF0
ENDCHAR

STARTCHAR i
ENCODING 105
SWIDTH 278 0
DWIDTH 7 0
BBX 7 17 0 0
BITMAP
30
78
78
30
00
F8
38
38
38
38
38
38
38
38
38
38
FE
ENDCHAR

STARTCHAR j
ENCODING 106
SWIDTH 333 0
DWIDTH 8 0
BBX 7 22 -1 -5
BITMAP
0C
1E
1E
0C
00
3E
1E
0E
0E
0E
0E
0E
0E
0E
0E
0E
0E
0E
4E
CE
CC
78
ENDCHAR

STARTCHAR k
ENCODING 107
SWIDTH 556 0
DWIDTH 14 0
BBX 14 17 0 0
BITMAP
F800
3800
3800
3800
3800
38F8
3860
3840
3880
3900
3B80
3DC0
39E0
39E0
38F0
3878
FCFC
ENDCHAR

STARTCHAR l
ENCODING 108
SWIDTH 278 0
DWIDTH 7 0
BBX 7 17 0 0
BITMAP
F8
38
38
38
38
38
38
38
38
38
38
38
38
38
38
38
FE
ENDCHAR

STARTCHAR m
ENCODING 109
SWIDTH 833 0
DWIDTH 21 0
BBX 19 12 1 0
BITMAP
F9C300
3BEFC0
3CF1C0
38F1C0
38F1C0
38F1C0
38F1C0
38F1C0
38F1C0
38F1C0
38F1C0
7DFBE0
ENDCHAR

STARTCHAR n
ENCODING 110
SWIDTH 556 0
DWIDTH 14 0
BBX 12 12 1 0
BITMAP
F980
3BE0
3CE0
38E0
38E0
38E0
38E0
38E0
38E0
38E0
38E0
7DF0
ENDCHAR

STARTCHAR o
ENCODING 111
SWIDTH 500 0
DWIDTH 13 0
BBX 11 12 1 0
BITMAP
1F00
3180
71C0
71C0
F1E0
F1E0
F1E0
F1E0
71C0
71C0
3180
1F00
ENDCHAR

STARTCHAR p
ENCODING 112
SWIDTH 556 0
DWIDTH 14 0
BBX 13 17 0 -5
BITMAP
FBE0
3CF0
3870
3878
3878
3878
3878
3878
3870
3870
3CE0
3BC0
3800
3800
3800
3800
FE00
ENDCHAR

STARTCHAR q
ENCODING 113
SWIDTH 556 0
DWIDTH 14 0
BBX 13 17 1 -5
BITMAP
0F20
39E0
70E0
70E0
F0E0
F0E0
F0E0
F0E0
F0E0
70E0
79E0
3EE0
00E0
00E0
00E0
00E0
03F8
ENDCHAR

STARTCHAR r
ENCODING 114
SWIDTH 444 0
DWIDTH 11 0
BBX 10 12 0 0
BITMAP
F8C0
3BC0
3CC0
3C00
3800
3800
3800
3800
3800
3800
3800
FE00
ENDCHAR

STARTCHAR s
ENCODING 115
SWIDTH 389 0
DWIDTH 10 0
BBX 8 12 1 0
BITMAP
3E
66
E2
F2
F8
7E
3E
1F
87
C7
66
5C
ENDCHAR

STARTCHAR t
ENCODING 116
SWIDTH 333 0
DWIDTH 8 0
BBX 8 16 0 0
BITMAP
08
08
18
38
FF
38
38
38
38
38
38
38
38
39
3D
1E
ENDCHAR

STARTCHAR u
ENCODING 117
SWIDTH 556 0
DWIDTH 14 0
BBX 13 12 0 0
BITMAP
F9E0
38E0
38E0
38E0
38E0
38E0
38E0
38E0
38E0
39E0
3EE0
0CF8
ENDCHAR

STARTCHAR v
ENCODING 118
SWIDTH 500 0
DWIDTH 13 0
BBX 12 12 0 0
BITMAP
FC70
7820
3C20
3C40
1C40
1E80
0E80
0F00
0700
0700
0600
0200
ENDCHAR

STARTCHAR w
ENCODING 119
SWIDTH 722 0
DWIDTH 18 0
BBX 18 12 0 0
BITMAP
FDFBC0
78F080
387100
3CF900
1CB900
1F3A00
1F3C00
0F1C00
0E1C00
061C00
060800
040800
ENDCHAR

STARTCHAR x
ENCODING 120
SWIDTH 500 0
DWIDTH 13 0
BBX 11 12 1 0
BITMAP
FDE0
7980
3900
3E00
1E00
1E00
0E00
0F00
1780
2780
63C0
F7E0
ENDCHAR

STARTCHAR y
ENCODING 121
SWIDTH 500 0
DWIDTH 13 0
BBX 12 17 1 -5
BITMAP
FCF0
7840
7840
3840
3C80
1C80
1E80
0F00
0F00
0E00
0600
0400
0400
6400
E800
E800
7000
ENDCHAR

STARTCHAR z
ENCODING 122
SWIDTH 444 0
DWIDTH 11 0
BBX 11 12 0 0
BITMAP
7FE0
63C0
43C0
0780
0F00
0F00
1E00
1E00
3C20
3820
78C0
FFC0
ENDCHAR

STARTCHAR braceleft
ENCODING 123
SWIDTH 394 0
DWIDTH 10 0
BBX 6 22 2 -5
BITMAP
0C
38
30
70
70
30
38
38
38
30
60
C0
30
30
38
38
78
70
70
70
30
1C
ENDCHAR

STARTCHAR bar
ENCODING 124
SWIDTH 220 0
DWIDTH 5 0
BBX 2 23 2 -6
BITMAP
C0
C0
C0
C0
C0
C0
C0
C0
C0
C0
C0
C0
C0
C0
C0
C0
C0
C0
C0
C0
C0
C0
C0
ENDCHAR

STARTCHAR braceright
ENCODING 125
SWIDTH 394 0
DWIDTH 10 0
BBX 6 22 2 -5
BITMAP
C0
70
30
38
38
78
70
70
30
30
18
0C
30
30
70
70
30
38
38
38
30
E0
ENDCHAR

STARTCHAR asciitilde
ENCODING 126
SWIDTH 520 0
DWIDTH 13 0
BBX 12 5 1 6
BITMAP
7810
FE20
FFE0
8FE0
0380
ENDCHAR

STARTCHAR space
ENCODING 160
SWIDTH 333 0
DWIDTH 10 0
BBX 0 0 0 0
BITMAP
ENDCHAR

STARTCHAR Aogonek
ENCODING 161
SWIDTH 722 0
DWIDTH 18 0
BBX 18 22 0 -5
BITMAP
004000
004000
00E000
00E000
01E000
01F000
02F000
027800
047800
043C00
003C00
0FFE00
081E00
101F00
100F00
300F80
FC3BC0
000400
000C00
000C00
000E00
0007C0
ENDCHAR

STARTCHAR breve
ENCODING 162
SWIDTH 333 0
DWIDTH 8 0
BBX 7 4 1 13
BITMAP
82
86
FC
78
ENDCHAR

STARTCHAR Lslash
ENCODING 163
SWIDTH 667 0
DWIDTH 17 0
BBX 15 17 1 0
BITMAP
FF80
3C00
3C00
3C00
3C80
3D80
3F00
3C00
3C00
3C00
7C00
BC02
BC02
3C02
3C06
3C0E
FFFC
ENDCHAR

STARTCHAR currency
ENCODING 164
SWIDTH 500 0
DWIDTH 13 0
BBX 11 11 1 3
BITMAP
CE60
FFE0
60C0
4040
C060
C060
C060
4040
60C0
FFE0
CE60
ENDCHAR

STARTCHAR Lcaron
ENCODING 165
SWIDTH 667 0
DWIDTH 17 0
BBX 15 17 1 0
BITMAP
FF9C
3C3E
3C3E
3C1E
3C06
3C04
3C08
3C10
3C00
3C00
3C00
3C02
3C02
3C02
3C06
3C0E
FFFC
ENDCHAR

STARTCHAR Sacute
ENCODING 166
SWIDTH 556 0
DWIDTH 14 0
BBX 12 22 1 0
BITMAP
03C0
0300
0700
0600
0000
1F20
30E0
6060
E020
E020
F800
7E00
7F80
3FC0
0FE0
03F0
80F0
8070
C070
E060
F0C0
8F00
ENDCHAR

STARTCHAR section
ENCODING 167
SWIDTH 500 0
DWIDTH 13 0
BBX 10 22 1 -5
BITMAP
1E00
3300
6380
6380
7000
7800
1E00
3F00
4780
C3C0
C1C0
E0C0
F0C0
7C80
3F00
1F00
0780
0380
7180
7180
3300
1E00
ENDCHAR

STARTCHAR dieresis
ENCODING 168
SWIDTH 333 0
DWIDTH 8 0
BBX 8 3 0 14
BITMAP
E7
E7
E7
ENDCHAR

STARTCHAR Scaron
ENCODING 169
SWIDTH 556 0
DWIDTH 14 0
BBX 12 22 1 0
BITMAP
30C0
1980
1F80
0F00
0000
1F20
30E0
6060
E020
E020
F800
7E00
7F80
3FC0
0FE0
03F0
80F0
8070
C070
E060
F0C0
8F00
ENDCHAR

STARTCHAR Scommaaccent
ENCODING 170
SWIDTH 556 0
DWIDTH 14 0
BBX 12 23 1 -6
BITMAP
1F20
30E0
6060
E020
E020
F800
7E00
7F80
3FC0
0FE0
03F0
80F0
8070
C070
C060
F0C0
8F00
0000
0E00
0E00
0200
0600
0800
ENDCHAR

STARTCHAR Tcaron
ENCODING 171
SWIDTH 667 0
DWIDTH 17 0
BBX 14 23 1 0
BITMAP
1020
0840
0DC0
0780
0780
0000
FFFC
C78C
8784
8784
8784
0780
0780
0780
0780
0780
0780
0780
0780
0780
0780
0780
1FE0
ENDCHAR

STARTCHAR Zacute
ENCODING 172
SWIDTH 667 0
DWIDTH 17 0
BBX 16 22 0 0
BITMAP
00F0
00C0
0180
0100
0000
3FFE
383C
207C
2078
20F8
01F0
01E0
03E0
07C0
07C0
0F80
0F01
1F01
3E01
3C03
7C0F
FFFF
ENDCHAR

STARTCHAR hyphen
ENCODING 173
SWIDTH 333 0
DWIDTH 8 0
BBX 7 3 1 4
BITMAP
FE
FE
FE
ENDCHAR

STARTCHAR Zcaron
ENCODING 174
SWIDTH 667 0
DWIDTH 17 0
BBX 16 23 0 0
BITMAP
0810
0630
0760
03E0
01C0
0000
3FFE
383C
207C
2078
20F8
01F0
01E0
03E0
07C0
07C0
0F80
0F01
1F01
3E01
3C03
7C0F
FFFF
ENDCHAR

STARTCHAR Zdotaccent
ENCODING 175
SWIDTH 667 0
DWIDTH 17 0
BBX 16 22 0 0
BITMAP
0180
03C0
03C0
0180
0000
3FFE
307C
2078
20F8
40F0
01F0
03E0
03C0
07C0
0780
0F80
1F01
1E01
3E03
3C03
780E
FFFE
ENDCHAR

STARTCHAR degree
ENCODING 176
SWIDTH 400 0
DWIDTH 10 0
BBX 9 9 0 8
BITMAP
1C00
7F00
6300
C180
C180
C180
6300
7F00
1C00
ENDCHAR

STARTCHAR aogonek
ENCODING 177
SWIDTH 500 0
DWIDTH 13 0
BBX 11 17 1 -5
BITMAP
3E00
6780
E380
E380
E380
0D80
3380
7380
E380
E780
FBC0
F180
0200
0600
0600
0700
03E0
ENDCHAR

STARTCHAR ogonek
ENCODING 178
SWIDTH 333 0
DWIDTH 8 0
BBX 6 6 1 -6
BITMAP
60
C0
C0
E0
7C
10
ENDCHAR

STARTCHAR lslash
ENCODING 179
SWIDTH 278 0
DWIDTH 7 0
BBX 7 17 0 0
BITMAP
F8
38
38
38
38
3A
3E
38
38
78
D8
38
38
38
38
38
FE
ENDCHAR

STARTCHAR acute
ENCODING 180
SWIDTH 333 0
DWIDTH 8 0
BBX 5 4 3 13
BITMAP
78
60
C0
80
ENDCHAR

STARTCHAR lcaron
ENCODING 181
SWIDTH 407 0
DWIDTH 10 0
BBX 10 17 0 0
BITMAP
FB80
3BC0
3BC0
3840
3880
3980
3A00
3800
3800
3800
3800
3800
3800
3800
3800
3800
FE00
ENDCHAR

STARTCHAR sacute
ENCODING 182
SWIDTH 389 0
DWIDTH 10 0
BBX 8 17 1 0
BITMAP
0F
1C
18
10
00
3A
66
E2
F2
F8
7E
3E
1F
87
C7
66
7C
ENDCHAR

STARTCHAR caron
ENCODING 183
SWIDTH 333 0
DWIDTH 8 0
BBX 8 4 0 13
BITMAP
C3
76
3E
3C
ENDCHAR

STARTCHAR commaaccent
ENCODING 184
SWIDTH 333 0
DWIDTH 8 0
BBX 3 5 3 -7
BITMAP
E0
E0
20
40
80
ENDCHAR

STARTCHAR scaron
ENCODING 185
SWIDTH 389 0
DWIDTH 10 0
BBX 8 18 1 0
BITMAP
81
42
76
3C
3C
00
3A
66
E2
F2
F8
7E
3E
1F
87
C7
66
7C
ENDCHAR

STARTCHAR scommaaccent
ENCODING 186
SWIDTH 389 0
DWIDTH 10 0
BBX 9 18 0 -6
BITMAP
3D00
6300
E100
F100
FC00
7E00
3F00
0F80
8780
C380
6300
5E00
0000
1C00
1C00
0400
0800
1000
ENDCHAR

STARTCHAR tcaron
ENCODING 187
SWIDTH 333 0
DWIDTH 8 0
BBX 9 17 0 0
BITMAP
0380
0B80
0880
1900
3800
FF00
3800
3800
3800
3800
3800
3800
3800
3800
3900
3E00
1E00
ENDCHAR

STARTCHAR zacute
ENCODING 188
SWIDTH 444 0
DWIDTH 11 0
BBX 11 18 0 0
BITMAP
0780
0700
0600
0C00
0800
0000
7FE0
43C0
4380
4780
0F00
0F00
1E00
1E00
3C20
7840
70C0
FFC0
ENDCHAR

STARTCHAR hungarumlaut
ENCODING 189
SWIDTH 333 0
DWIDTH 8 0
BBX 8 4 1 13
BITMAP
37
66
64
CC
ENDCHAR

STARTCHAR zcaron
ENCODING 190
SWIDTH 444 0
DWIDTH 11 0
BBX 11 18 0 0
BITMAP
2080
3180
1F00
1F00
0E00
0000
7FE0
43C0
4380
4780
0F00
0F00
1E00
1E00
3C20
7840
70C0
FFC0
ENDCHAR

STARTCHAR zdotaccent
ENCODING 191
SWIDTH 444 0
DWIDTH 11 0
BBX 10 17 0 0
BITMAP
0C00
1E00
1E00
0C00
0000
7FC0
43C0
4780
4700
0F00
1E00
1E00
3C00
3C40
7840
F0C0
FFC0
ENDCHAR

STARTCHAR Racute
ENCODING 192
SWIDTH 722 0
DWIDTH 18 0
BBX 18 22 1 0
BITMAP
00F000
00E000
00C000
018000
000000
FFF000
3C3C00
3C1E00
3C1E00
3C1E00
3C1E00
3C1E00
3C3C00
3FE000
3DF000
3CF800
3C7800
3C3C00
3C3E00
3C1E00
3C0F00
FF0FC0
ENDCHAR

STARTCHAR Aacute
ENCODING 193
SWIDTH 722 0
DWIDTH 18 0
BBX 18 22 0 0
BITMAP
007800
007000
00E000
00C000
008000
004000
00C000
00C000
01E000
01E000
01F000
02F000
02F800
047800
047C00
083C00
0FFC00
101E00
101E00
300F00
300F00
FC3FC0
ENDCHAR

STARTCHAR Acircumflex
ENCODING 194
SWIDTH 722 0
DWIDTH 18 0
BBX 18 22 0 0
BITMAP
01E000
01E000
03B000
021000
040800
004000
00C000
00C000
01E000
01E000
01F000
02F000
02F800
047800
047C00
083C00
0FFC00
101E00
101E00
300F00
300F00
FC3FC0
ENDCHAR

STARTCHAR Abreve
ENCODING 195
SWIDTH 722 0
DWIDTH 18 0
BBX 18 22 0 0
BITMAP
040800
021800
03F000
01E000
000000
004000
00C000
00C000
01E000
01E000
01F000
02F000
02F800
047800
047C00
083C00
0FFC00
101E00
101E00
300F00
300F00
FC3FC0
ENDCHAR

STARTCHAR Adieresis
ENCODING 196
SWIDTH 722 0
DWIDTH 18 0
BBX 18 21 0 0
BITMAP
073800
073800
073800
000000
004000
00C000
00C000
01E000
01E000
03F000
02F000
06F800
047800
047C00
083C00
0FFE00
101E00
101F00
200F00
600F80
FC3FC0
ENDCHAR

STARTCHAR Lacute
ENCODING 197
SWIDTH 667 0
DWIDTH 17 0
BBX 15 22 1 0
BITMAP
01E0
01C0
0180
0300
0000
FF80
3C00
3C00
3C00
3C00
3C00
3C00
3C00
3C00
3C00
3C00
3C02
3C02
3C02
3C06
3C0E
FFFC
ENDCHAR

STARTCHAR Cacute
ENCODING 198
SWIDTH 722 0
DWIDTH 18 0
BBX 16 22 1 0
BITMAP
00E0
01C0
0180
0300
0000
03F1
0F0F
3C07
3803
7801
F801
F000
F000
F000
F000
F000
F800
7800
7802
3C02
1F0C
07F0
ENDCHAR

STARTCHAR Ccedilla
ENCODING 199
SWIDTH 722 0
DWIDTH 18 0
BBX 16 22 1 -5
BITMAP
03F1
0F0F
1C03
3C01
7801
F801
F800
F000
F000
F000
F800
F800
7800
7C01
3C03
1F0C
07F8
0080
01E0
00E0
00E0
0780
ENDCHAR

STARTCHAR Ccaron
ENCODING 200
SWIDTH 722 0
DWIDTH 18 0
BBX 16 22 1 0
BITMAP
0618
0330
03E0
01E0
0000
03F1
0F0F
3C07
3803
7801
F801
F000
F000
F000
F000
F000
F800
7800
7802
3C02
1F0C
07F0
ENDCHAR

STARTCHAR Eacute
ENCODING 201
SWIDTH 667 0
DWIDTH 17 0
BBX 15 22 1 0
BITMAP
01E0
0180
0300
0200
0000
FFF8
3C18
3C08
3C08
3C48
3C40
3C40
3CC0
3FC0
3CC0
3C40
3C40
3C42
3C04
3C0C
3C1C
FFFC
ENDCHAR

STARTCHAR Eogonek
ENCODING 202
SWIDTH 667 0
DWIDTH 17 0
BBX 15 23 1 -6
BITMAP
FFFC
3C1C
3C04
3C04
3C44
3C40
3C40
3CC0
3FC0
3CC0
3C40
3C40
3C42
3C02
3C06
3C0E
FFFC
0020
0060
0060
0070
003E
0008
ENDCHAR

STARTCHAR Edieresis
ENCODING 203
SWIDTH 667 0
DWIDTH 17 0
BBX 15 22 1 0
BITMAP
0C60
1EE0
0C60
0000
0000
FFFC
3C1C
3C0C
3C04
3C44
3C40
3C40
3CC0
3FC0
3C40
3C40
3C40
3C42
3C04
3C04
3C1C
FFFC
ENDCHAR

STARTCHAR Ecaron
ENCODING 204
SWIDTH 667 0
DWIDTH 17 0
BBX 15 23 1 0
BITMAP
1020
0840
0FC0
0780
0780
0000
FFF8
3C18
3C08
3C08
3C48
3C40
3C40
3CC0
3FC0
3CC0
3C40
3C40
3C42
3C04
3C0C
3C1C
FFFC
ENDCHAR

STARTCHAR Iacute
ENCODING 205
SWIDTH 389 0
DWIDTH 10 0
BBX 8 22 1 0
BITMAP
0F
1C
18
10
00
FF
3C
3C
3C
3C
3C
3C
3C
3C
3C
3C
3C
3C
3C
3C
3C
FF
ENDCHAR

STARTCHAR Icircumflex
ENCODING 206
SWIDTH 389 0
DWIDTH 10 0
BBX 8 22 1 0
BITMAP
3C
3C
66
C3
00
FF
3C
3C
3C
3C
3C
3C
3C
3C
3C
3C
3C
3C
3C
3C
3C
FF
ENDCHAR

STARTCHAR Dcaron
ENCODING 207
SWIDTH 722 0
DWIDTH 18 0
BBX 16 23 1 0
BITMAP
0810
0420
06E0
03C0
03C0
0000
FFE0
3C78
3C3C
3C1E
3C1E
3C0F
3C0F
3C0F
3C0F
3C0F
3C0F
3C0F
3C1E
3C1E
3C3C
3C78
FFE0
ENDCHAR

STARTCHAR Dcroat
ENCODING 208
SWIDTH 722 0
DWIDTH 18 0
BBX 16 17 1 0
BITMAP
FFE0
3C78
3C3C
3C1E
3C1E
3C1F
3C0F
3C0F
FFCF
3C0F
3C0F
3C0F
3C1E
3C1E
3C3C
3C78
FFE0
ENDCHAR

STARTCHAR Nacute
ENCODING 209
SWIDTH 722 0
DWIDTH 18 0
BBX 17 22 1 0
BITMAP
00F000
00E000
00C000
018000
000000
FC0F80
7E0200
3E0200
2F0200
2F8200
27C200
23E200
23F200
21F200
20FA00
207E00
203E00
201E00
201E00
200E00
200600
FC0200
ENDCHAR

STARTCHAR Ncaron
ENCODING 210
SWIDTH 722 0
DWIDTH 18 0
BBX 17 22 1 0
BITMAP
0C3000
066000
03E000
03C000
000000
FC0F80
7E0200
3E0200
2F0200
2F8200
27C200
23E200
23F200
21F200
20FA00
207E00
203E00
201E00
201E00
200E00
200600
FC0200
ENDCHAR

STARTCHAR Oacute
ENCODING 211
SWIDTH 778 0
DWIDTH 19 0
BBX 17 22 1 0
BITMAP
00F000
00E000
00C000
018000
000000
07F000
1E1C00
3C0E00
780F00
780F00
F00780
F00780
F00780
F00780
F00780
F00780
F00780
780F00
780F00
3C1E00
0E3C00
03E000
ENDCHAR

STARTCHAR Ocircumflex
ENCODING 212
SWIDTH 778 0
DWIDTH 19 0
BBX 17 22 1 0
BITMAP
01C000
03E000
036000
063000
000000
07F000
1E1C00
3C0E00
780F00
780F00
F00780
F00780
F00780
F00780
F00780
F00780
F00780
780F00
780F00
3C1E00
0E3C00
03E000
ENDCHAR

STARTCHAR Ohungarumlaut
ENCODING 213
SWIDTH 778 0
DWIDTH 19 0
BBX 17 22 1 0
BITMAP
01DC00
019800
033000
022000
000000
07F000
1E1C00
3C0E00
780F00
780F00
F00780
F00780
F00780
F00780
F00780
F00780
F00780
780F00
780F00
3C1E00
0E3C00
03E000
ENDCHAR

STARTCHAR Odieresis
ENCODING 214
SWIDTH 778 0
DWIDTH 19 0
BBX 17 21 1 0
BITMAP
077000
077000
077000
000000
07E000
1E3C00
3C1E00
780F00
780F00
F80F80
F00780
F00780
F00780
F00780
F00780
F80F80
780F00
780F00
3C1E00
0E3800
03E000
ENDCHAR

STARTCHAR multiply
ENCODING 215
SWIDTH 570 0
DWIDTH 14 0
BBX 11 11 2 3
BITMAP
4040
C0E0
61C0
3380
1B00
0E00
1E00
3B00
7180
E0E0
C040
ENDCHAR

STARTCHAR Rcaron
ENCODING 216
SWIDTH 722 0
DWIDTH 18 0
BBX 18 23 1 0
BITMAP
040800
063000
037000
03E000
01C000
000000
FFF000
3C3C00
3C1E00
3C1E00
3C1E00
3C1E00
3C1E00
3C3C00
3FE000
3DF000
3CF800
3C7800
3C3C00
3C3E00
3C1E00
3C0F00
FF0FC0
ENDCHAR

STARTCHAR Uring
ENCODING 217
SWIDTH 722 0
DWIDTH 18 0
BBX 17 22 1 0
BITMAP
01C000
022000
022000
022000
00C000
FF1F80
3C0200
3C0200
3C0200
3C0200
3C0200
3C0200
3C0200
3C0200
3C0200
3C0200
3C0200
3C0200
3C0600
1E0400
1F1800
07F000
ENDCHAR

STARTCHAR Uacute
ENCODING 218
SWIDTH 722 0
DWIDTH 18 0
BBX 17 22 1 0
BITMAP
00F000
00E000
00C000
018000
000000
FF8F80
3C0200
3C0200
3C0200
3C0200
3C0200
3C0200
3C0200
3C0200
3C0200
3C0200
3C0200
3C0200
3C0600
1E0400
1F0800
07F000
ENDCHAR

STARTCHAR Uhungarumlaut
ENCODING 219
SWIDTH 722 0
DWIDTH 18 0
BBX 17 22 1 0
BITMAP
01DC00
019800
033000
022000
000000
FF8F80
3C0200
3C0200
3C0200
3C0200
3C0200
3C0200
3C0200
3C0200
3C0200
3C0200
3C0200
3C0200
3C0600
1E0400
1F0800
07F000
ENDCHAR

STARTCHAR Udieresis
ENCODING 220
SWIDTH 722 0
DWIDTH 18 0
BBX 17 21 1 0
BITMAP
077000
077000
077000
000000
FF1F80
3C0600
3C0200
3C0200
3C0200
3C0200
3C0200
3C0200
3C0200
3C0200
3C0200
3C0200
3C0200
3C0600
1C0400
1F1800
07E000
ENDCHAR

STARTCHAR Yacute
ENCODING 221
SWIDTH 722 0
DWIDTH 18 0
BBX 18 22 0 0
BITMAP
007800
00E000
00C000
008000
000000
FF07C0
3E0300
1E0300
1E0200
0F0400
0F8400
078800
07D000
03D000
03E000
01E000
01E000
01E000
01E000
01E000
01E000
0FFC00
ENDCHAR

STARTCHAR Tcommaaccent
ENCODING 222
SWIDTH 667 0
DWIDTH 17 0
BBX 14 23 1 -6
BITMAP
FFFC
C78C
8784
8784
8784
0780
0780
0780
0780
0780
0780
0780
0780
0780
0780
0780
1FE0
0000
0700
0700
0100
0200
0400
ENDCHAR

STARTCHAR germandbls
ENCODING 223
SWIDTH 556 0
DWIDTH 14 0
BBX 12 17 1 0
BITMAP
1F80
39C0
70E0
70E0
70E0
70E0
7100
70C0
70E0
70F0
70F0
70F0
7070
7360
7360
73C0
F080
ENDCHAR

STARTCHAR racute
ENCODING 224
SWIDTH 444 0
DWIDTH 11 0
BBX 9 17 1 0
BITMAP
0F00
0E00
0C00
1800
0000
0180
F380
7780
7980
7800
7000
7000
7000
7000
7000
7000
FC00
ENDCHAR

STARTCHAR aacute
ENCODING 225
SWIDTH 500 0
DWIDTH 13 0
BBX 12 17 1 0
BITMAP
03C0
0700
0600
0400
0000
1F00
73C0
71C0
71C0
71C0
06C0
19C0
71C0
71C0
F3C0
7DF0
79E0
ENDCHAR

STARTCHAR acircumflex
ENCODING 226
SWIDTH 500 0
DWIDTH 13 0
BBX 12 18 1 0
BITMAP
0700
0F00
1D80
1980
3040
0000
1F00
73C0
71C0
71C0
71C0
06C0
19C0
71C0
71C0
F3C0
7DF0
79E0
ENDCHAR

STARTCHAR abreve
ENCODING 227
SWIDTH 500 0
DWIDTH 13 0
BBX 12 17 1 0
BITMAP
2040
30C0
1F80
0F00
0000
1F00
73C0
71C0
71C0
71C0
06C0
19C0
71C0
71C0
F3C0
7DF0
79E0
ENDCHAR

STARTCHAR adieresis
ENCODING 228
SWIDTH 500 0
DWIDTH 13 0
BBX 11 17 1 0
BITMAP
3980
39C0
3980
0000
0000
1F00
6380
7380
73C0
73C0
0DC0
1BC0
73C0
73C0
F3C0
7DE0
79C0
ENDCHAR

STARTCHAR lacute
ENCODING 229
SWIDTH 278 0
DWIDTH 7 0
BBX 7 22 0 0
BITMAP
1E
18
30
20
00
F8
38
38
38
38
38
38
38
38
38
38
38
38
38
38
38
FE
ENDCHAR

STARTCHAR cacute
ENCODING 230
SWIDTH 444 0
DWIDTH 11 0
BBX 9 17 1 0
BITMAP
0F00
0E00
0C00
1800
0000
1E00
3380
6380
E380
E000
E000
E000
F000
F000
7880
7F00
1E00
ENDCHAR

STARTCHAR ccedilla
ENCODING 231
SWIDTH 444 0
DWIDTH 11 0
BBX 10 17 1 -5
BITMAP
1F00
3380
73C0
E180
E000
E000
F000
F000
F840
7C80
3F80
0600
0E00
1F00
0700
0E00
3000
ENDCHAR

STARTCHAR ccaron
ENCODING 232
SWIDTH 444 0
DWIDTH 11 0
BBX 9 18 1 0
BITMAP
4080
6300
3600
3E00
1C00
0000
1E00
3380
6380
E380
E000
E000
E000
F000
F000
7880
7F00
1E00
ENDCHAR

STARTCHAR eacute
ENCODING 233
SWIDTH 444 0
DWIDTH 11 0
BBX 9 17 1 0
BITMAP
0F00
0E00
0C00
1800
0000
1E00
3300
6380
E380
E380
FF80
E000
F000
F080
7880
7F00
1E00
ENDCHAR

STARTCHAR eogonek
ENCODING 234
SWIDTH 444 0
DWIDTH 11 0
BBX 10 18 1 -6
BITMAP
1E00
3380
7180
71C0
71C0
FFC0
F000
F000
7000
7840
7F80
3F00
0C00
1800
1800
1C00
0F80
0600
ENDCHAR

STARTCHAR edieresis
ENCODING 235
SWIDTH 444 0
DWIDTH 11 0
BBX 10 17 1 0
BITMAP
7380
7380
7380
0000
0000
1E00
3380
7180
61C0
E1C0
FFC0
F000
F000
F040
7840
7F80
1E00
ENDCHAR

STARTCHAR ecaron
ENCODING 236
SWIDTH 444 0
DWIDTH 11 0
BBX 9 18 1 0
BITMAP
4080
6300
3600
3E00
1C00
0000
1E00
3300
6380
E380
E380
FF80
E000
F000
F080
7880
7F00
1E00
ENDCHAR

STARTCHAR iacute
ENCODING 237
SWIDTH 278 0
DWIDTH 7 0
BBX 7 17 0 0
BITMAP
1E
18
10
20
00
F8
38
38
38
38
38
38
38
38
38
38
FE
ENDCHAR

STARTCHAR icircumflex
ENCODING 238
SWIDTH 278 0
DWIDTH 7 0
BBX 7 18 0 0
BITMAP
38
7C
74
C6
82
00
F8
38
38
38
38
38
38
38
38
38
38
FE
ENDCHAR

STARTCHAR dcaron
ENCODING 239
SWIDTH 633 0
DWIDTH 16 0
BBX 16 17 1 0
BITMAP
03E6
00EF
00EF
00E1
00E2
1EEC
39E0
70E0
70E0
F0E0
F0E0
F0E0
F0E0
70E0
71E0
7B78
3EF0
ENDCHAR

STARTCHAR dcroat
ENCODING 240
SWIDTH 556 0
DWIDTH 14 0
BBX 13 17 1 0
BITMAP
03E0
00E0
0FF8
00E0
00E0
1EE0
39E0
70E0
70E0
F0E0
F0E0
F0E0
F0E0
70E0
71E0
7B78
3EF0
ENDCHAR

STARTCHAR nacute
ENCODING 241
SWIDTH 556 0
DWIDTH 14 0
BBX 11 17 2 0
BITMAP
0780
0700
0600
0C00
0000
0300
F7C0
79C0
71C0
71C0
71C0
71C0
71C0
71C0
71C0
71C0
FBE0
ENDCHAR

STARTCHAR ncaron
ENCODING 242
SWIDTH 556 0
DWIDTH 14 0
BBX 11 17 2 0
BITMAP
3180
1B00
1F00
0E00
0000
0300
F7C0
79C0
71C0
71C0
71C0
71C0
71C0
71C0
71C0
71C0
FBE0
ENDCHAR

STARTCHAR oacute
ENCODING 243
SWIDTH 500 0
DWIDTH 13 0
BBX 11 17 1 0
BITMAP
0780
0600
0600
0C00
0000
1F00
3980
71C0
71C0
F1E0
F1E0
F1E0
F1E0
71C0
71C0
3380
1F00
ENDCHAR

STARTCHAR ocircumflex
ENCODING 244
SWIDTH 500 0
DWIDTH 13 0
BBX 11 18 1 0
BITMAP
0E00
0F00
1F00
3180
2080
0000
1F00
3980
71C0
71C0
F1E0
F1E0
F1E0
F1E0
71C0
71C0
3380
1F00
ENDCHAR

STARTCHAR ohungarumlaut
ENCODING 245
SWIDTH 500 0
DWIDTH 13 0
BBX 11 17 1 0
BITMAP
0EC0
0980
1980
1100
0000
1F00
3980
71C0
71C0
F1E0
F1E0
F1E0
F1E0
71C0
71C0
3380
1F00
ENDCHAR

STARTCHAR odieresis
ENCODING 246
SWIDTH 500 0
DWIDTH 13 0
BBX 11 17 1 0
BITMAP
3B80
3B80
3B80
0000
0000
1F00
3980
71C0
71C0
F1E0
F1E0
F1E0
F1E0
71C0
71C0
3380
1F00
ENDCHAR

STARTCHAR divide
ENCODING 247
SWIDTH 570 0
DWIDTH 14 0
BBX 14 10 0 3
BITMAP
0380
0380
0000
0000
FFFC
FFFC
0000
0000
0380
0380
ENDCHAR

STARTCHAR rcaron
ENCODING 248
SWIDTH 444 0
DWIDTH 11 0
BBX 9 17 1 0
BITMAP
4300
7600
3E00
1C00
0000
0180
F380
7780
7980
7800
7000
7000
7000
7000
7000
7000
FC00
ENDCHAR

STARTCHAR uring
ENCODING 249
SWIDTH 556 0
DWIDTH 14 0
BBX 11 18 1 0
BITMAP
0E00
1100
1100
1100
0E00
0000
F3C0
71C0
71C0
71C0
71C0
71C0
71C0
71C0
71C0
73C0
7EC0
19E0
ENDCHAR

STARTCHAR uacute
ENCODING 250
SWIDTH 556 0
DWIDTH 14 0
BBX 11 17 2 0
BITMAP
0780
0600
0400
0800
0000
F3C0
71C0
71C0
71C0
71C0
71C0
71C0
71C0
71C0
73C0
7EC0
19E0
ENDCHAR

STARTCHAR uhungarumlaut
ENCODING 251
SWIDTH 556 0
DWIDTH 14 0
BBX 11 17 2 0
BITMAP
0EC0
0980
1900
1100
0000
F3C0
71C0
71C0
71C0
71C0
71C0
71C0
71C0
71C0
73C0
7EC0
19E0
ENDCHAR

STARTCHAR udieresis
ENCODING 252
SWIDTH 556 0
DWIDTH 14 0
BBX 12 17 1 0
BITMAP
39C0
39C0
39C0
0000
0000
F1E0
70E0
70E0
70E0
70E0
70E0
70E0
70E0
70E0
79E0
7EE0
1CF0
ENDCHAR

STARTCHAR yacute
ENCODING 253
SWIDTH 500 0
DWIDTH 13 0
BBX 12 22 0 -5
BITMAP
03C0
0700
0600
0400
0000
FCF0
7860
3840
3C40
3C40
1C80
1E80
0F00
0F00
0700
0600
0200
0200
6400
E400
F800
7000
ENDCHAR

STARTCHAR tcommaaccent
ENCODING 254
SWIDTH 333 0
DWIDTH 8 0
BBX 8 23 0 -7
BITMAP
08
08
18
38
FF
38
38
38
38
38
38
38
38
39
3D
1E
00
00
1C
1C
04
08
10
ENDCHAR

STARTCHAR dotaccent
ENCODING 255
SWIDTH 333 0
DWIDTH 8 0
BBX 4 4 2 13
BITMAP
60
F0
F0
60
ENDCHAR
ENDFONT
